<?xml version="1.0" encoding="UTF-8" standalone="no"?>
<!DOCTYPE svg PUBLIC "-//W3C//DTD SVG 1.1//EN"
 "http://www.w3.org/Graphics/SVG/1.1/DTD/svg11.dtd">
<!-- Generated by graphviz version 2.40.1 (20161225.0304)
 -->
<!-- Title: state transitions Pages: 1 -->
<svg width="547pt" height="188pt"
 viewBox="0.00 0.00 547.00 188.00" xmlns="http://www.w3.org/2000/svg" xmlns:xlink="http://www.w3.org/1999/xlink">
<g id="graph0" class="graph" transform="scale(1 1) rotate(0) translate(4 184)">
<title>state transitions</title>
<polygon fill="#ffffff" stroke="transparent" points="-4,4 -4,-184 543,-184 543,4 -4,4"/>
<g id="clust1" class="cluster state regular">
<title>cluster_instruction_type</title>
<path fill="none" stroke="#000000" stroke-width="2" d="M20,-8C20,-8 519,-8 519,-8 525,-8 531,-14 531,-20 531,-20 531,-160 531,-160 531,-166 525,-172 519,-172 519,-172 20,-172 20,-172 14,-172 8,-166 8,-160 8,-160 8,-20 8,-20 8,-14 14,-8 20,-8"/>
<text text-anchor="start" x="227.4898" y="-153.2" font-family="Helvetica,sans-Serif" font-size="12.00" fill="#000000">instruction_type</text>
</g>
<!-- instruction_type -->
<!-- 0 -->
<g id="node2" class="node state regular">
<title>0</title>
<polygon fill="#ffffff" fill-opacity="0.003922" stroke="transparent" stroke-width="2" points="488,-134 432,-134 432,-98 488,-98 488,-134"/>
<text text-anchor="start" x="456.6646" y="-112.2" font-family="Helvetica,sans-Serif" font-size="12.00" fill="#000000">0</text>
<path fill="none" stroke="#000000" stroke-width="2" d="M444.3333,-99C444.3333,-99 475.6667,-99 475.6667,-99 481.3333,-99 487,-104.6667 487,-110.3333 487,-110.3333 487,-121.6667 487,-121.6667 487,-127.3333 481.3333,-133 475.6667,-133 475.6667,-133 444.3333,-133 444.3333,-133 438.6667,-133 433,-127.3333 433,-121.6667 433,-121.6667 433,-110.3333 433,-110.3333 433,-104.6667 438.6667,-99 444.3333,-99"/>
</g>
<!-- DATA_TRANSFER -->
<g id="node5" class="node state regular">
<title>DATA_TRANSFER</title>
<polygon fill="#ffffff" fill-opacity="0.003922" stroke="transparent" stroke-width="2" points="522.5,-52 397.5,-52 397.5,-16 522.5,-16 522.5,-52"/>
<text text-anchor="start" x="408.8358" y="-30.2" font-family="Helvetica,sans-Serif" font-size="12.00" fill="#000000">DATA_TRANSFER</text>
<path fill="none" stroke="#ff0000" stroke-width="2" d="M409.8333,-17C409.8333,-17 510.1667,-17 510.1667,-17 515.8333,-17 521.5,-22.6667 521.5,-28.3333 521.5,-28.3333 521.5,-39.6667 521.5,-39.6667 521.5,-45.3333 515.8333,-51 510.1667,-51 510.1667,-51 409.8333,-51 409.8333,-51 404.1667,-51 398.5,-45.3333 398.5,-39.6667 398.5,-39.6667 398.5,-28.3333 398.5,-28.3333 398.5,-22.6667 404.1667,-17 409.8333,-17"/>
</g>
<!-- 0&#45;&gt;DATA_TRANSFER -->
<g id="edge1" class="edge transition">
<title>0&#45;&gt;DATA_TRANSFER</title>
<path fill="none" stroke="#ff0000" d="M460,-97.8015C460,-87.3976 460,-74.1215 460,-62.3768"/>
<polygon fill="#ff0000" stroke="#ff0000" points="463.5001,-62.1476 460,-52.1476 456.5001,-62.1476 463.5001,-62.1476"/>
<text text-anchor="middle" x="461.3895" y="-72" font-family="Helvetica,sans-Serif" font-size="10.00" fill="#ff0000"> </text>
</g>
<!-- 3 -->
<g id="node3" class="node state regular">
<title>3</title>
<polygon fill="#ffffff" fill-opacity="0.003922" stroke="transparent" stroke-width="2" points="311,-134 255,-134 255,-98 311,-98 311,-134"/>
<text text-anchor="start" x="279.6646" y="-112.2" font-family="Helvetica,sans-Serif" font-size="12.00" fill="#000000">3</text>
<path fill="none" stroke="#000000" stroke-width="2" d="M267.3333,-99C267.3333,-99 298.6667,-99 298.6667,-99 304.3333,-99 310,-104.6667 310,-110.3333 310,-110.3333 310,-121.6667 310,-121.6667 310,-127.3333 304.3333,-133 298.6667,-133 298.6667,-133 267.3333,-133 267.3333,-133 261.6667,-133 256,-127.3333 256,-121.6667 256,-121.6667 256,-110.3333 256,-110.3333 256,-104.6667 261.6667,-99 267.3333,-99"/>
</g>
<!-- ARITHMETIC_AND_LOGICAL -->
<g id="node6" class="node state regular">
<title>ARITHMETIC_AND_LOGICAL</title>
<polygon fill="#ffffff" fill-opacity="0.003922" stroke="transparent" stroke-width="2" points="376,-52 190,-52 190,-16 376,-16 376,-52"/>
<text text-anchor="start" x="200.9992" y="-30.2" font-family="Helvetica,sans-Serif" font-size="12.00" fill="#000000">ARITHMETIC_AND_LOGICAL</text>
<path fill="none" stroke="#ff0000" stroke-width="2" d="M202.3333,-17C202.3333,-17 363.6667,-17 363.6667,-17 369.3333,-17 375,-22.6667 375,-28.3333 375,-28.3333 375,-39.6667 375,-39.6667 375,-45.3333 369.3333,-51 363.6667,-51 363.6667,-51 202.3333,-51 202.3333,-51 196.6667,-51 191,-45.3333 191,-39.6667 191,-39.6667 191,-28.3333 191,-28.3333 191,-22.6667 196.6667,-17 202.3333,-17"/>
</g>
<!-- 3&#45;&gt;ARITHMETIC_AND_LOGICAL -->
<g id="edge2" class="edge transition">
<title>3&#45;&gt;ARITHMETIC_AND_LOGICAL</title>
<path fill="none" stroke="#ff0000" d="M283,-97.8015C283,-87.3976 283,-74.1215 283,-62.3768"/>
<polygon fill="#ff0000" stroke="#ff0000" points="286.5001,-62.1476 283,-52.1476 279.5001,-62.1476 286.5001,-62.1476"/>
<text text-anchor="middle" x="284.3895" y="-72" font-family="Helvetica,sans-Serif" font-size="10.00" fill="#ff0000"> </text>
</g>
<!-- 13 -->
<g id="node4" class="node state regular">
<title>13</title>
<polygon fill="#ffffff" fill-opacity="0.003922" stroke="transparent" stroke-width="2" points="120,-134 64,-134 64,-98 120,-98 120,-134"/>
<text text-anchor="start" x="85.3292" y="-112.2" font-family="Helvetica,sans-Serif" font-size="12.00" fill="#000000">13</text>
<path fill="none" stroke="#000000" stroke-width="2" d="M76.3333,-99C76.3333,-99 107.6667,-99 107.6667,-99 113.3333,-99 119,-104.6667 119,-110.3333 119,-110.3333 119,-121.6667 119,-121.6667 119,-127.3333 113.3333,-133 107.6667,-133 107.6667,-133 76.3333,-133 76.3333,-133 70.6667,-133 65,-127.3333 65,-121.6667 65,-121.6667 65,-110.3333 65,-110.3333 65,-104.6667 70.6667,-99 76.3333,-99"/>
</g>
<!-- CONTROL_TRANSFER -->
<g id="node7" class="node state regular">
<title>CONTROL_TRANSFER</title>
<polygon fill="#ffffff" fill-opacity="0.003922" stroke="transparent" stroke-width="2" points="167.5,-52 16.5,-52 16.5,-16 167.5,-16 167.5,-52"/>
<text text-anchor="start" x="27.5056" y="-30.2" font-family="Helvetica,sans-Serif" font-size="12.00" fill="#000000">CONTROL_TRANSFER</text>
<path fill="none" stroke="#ff0000" stroke-width="2" d="M28.8333,-17C28.8333,-17 155.1667,-17 155.1667,-17 160.8333,-17 166.5,-22.6667 166.5,-28.3333 166.5,-28.3333 166.5,-39.6667 166.5,-39.6667 166.5,-45.3333 160.8333,-51 155.1667,-51 155.1667,-51 28.8333,-51 28.8333,-51 23.1667,-51 17.5,-45.3333 17.5,-39.6667 17.5,-39.6667 17.5,-28.3333 17.5,-28.3333 17.5,-22.6667 23.1667,-17 28.8333,-17"/>
</g>
<!-- 13&#45;&gt;CONTROL_TRANSFER -->
<g id="edge3" class="edge transition">
<title>13&#45;&gt;CONTROL_TRANSFER</title>
<path fill="none" stroke="#ff0000" d="M92,-97.8015C92,-87.3976 92,-74.1215 92,-62.3768"/>
<polygon fill="#ff0000" stroke="#ff0000" points="95.5001,-62.1476 92,-52.1476 88.5001,-62.1476 95.5001,-62.1476"/>
<text text-anchor="middle" x="93.3895" y="-72" font-family="Helvetica,sans-Serif" font-size="10.00" fill="#ff0000"> </text>
</g>
</g>
</svg>
